<svg width="20" height="16" viewBox="0 0 20 16" fill="none" xmlns="http://www.w3.org/2000/svg">
<path d="M18.6059 0.629883H0.638825C0.469416 0.630077 0.307006 0.695953 0.187238 0.813053C0.0674714 0.930153 0.000132286 1.08891 0 1.25448V2.51101C0 2.5689 0.0642324 2.63535 0.116718 2.66222L9.56063 7.93431C9.58483 7.94782 9.61225 7.95482 9.64011 7.95458C9.66859 7.95466 9.69657 7.94724 9.72109 7.93309L18.8796 2.66735C18.9311 2.63925 19.0675 2.565 19.1188 2.5308C19.1808 2.48952 19.2447 2.45214 19.2447 2.37813V1.25424C19.2445 1.08871 19.1772 0.930014 19.0574 0.812967C18.9376 0.69592 18.7753 0.630077 18.6059 0.629883Z" fill="#C3CE19"/>
<path d="M19.165 4.40543C19.1405 4.39172 19.1126 4.3846 19.0843 4.38477C19.056 4.38494 19.0282 4.3924 19.0038 4.4064L13.821 7.38669C13.8003 7.39846 13.7827 7.41461 13.7693 7.43396C13.7559 7.45331 13.7471 7.47536 13.7436 7.49847C13.7402 7.52158 13.742 7.54517 13.7492 7.56747C13.7563 7.58977 13.7684 7.61022 13.7848 7.6273L18.9683 13.0884C18.9832 13.1041 19.0012 13.1167 19.0213 13.1253C19.0414 13.1339 19.0631 13.1383 19.0851 13.1382C19.1274 13.1381 19.168 13.1217 19.1979 13.0924C19.2279 13.0631 19.2447 13.0235 19.2448 12.9821V4.54099C19.2449 4.51354 19.2376 4.48654 19.2236 4.46273C19.2096 4.43892 19.1894 4.41916 19.165 4.40543Z" fill="#C3CE19"/>
<path d="M12.3274 8.38768C12.3028 8.3615 12.2697 8.34435 12.2338 8.3391C12.1978 8.33386 12.161 8.34083 12.1297 8.35886L10.0523 9.55355C9.93055 9.62229 9.79263 9.6589 9.65207 9.6598C9.5115 9.6607 9.37311 9.62585 9.25048 9.55868L7.42223 8.53791C7.39272 8.52148 7.35862 8.51466 7.32487 8.51843C7.29112 8.52221 7.25948 8.53639 7.23453 8.55891L0.291932 14.8526C0.273731 14.8692 0.259757 14.8898 0.251123 14.9126C0.242488 14.9355 0.239433 14.96 0.242201 14.9842C0.244968 15.0084 0.253482 15.0316 0.267062 15.052C0.280643 15.0724 0.298916 15.0895 0.320424 15.1018C0.428394 15.1638 0.532616 15.1934 0.638587 15.1934H18.422C18.4531 15.1934 18.4835 15.1845 18.5095 15.1678C18.5355 15.1511 18.5559 15.1273 18.5682 15.0993C18.5807 15.0715 18.5845 15.0408 18.5793 15.0108C18.574 14.9809 18.5599 14.9532 18.5387 14.931L12.3274 8.38768Z" fill="#C3CE19"/>
<path d="M5.70693 7.81471C5.72532 7.7981 5.73946 7.77749 5.74819 7.75455C5.75693 7.73161 5.76002 7.70699 5.75722 7.68267C5.75443 7.65834 5.74582 7.63501 5.73209 7.61454C5.71836 7.59407 5.6999 7.57704 5.67819 7.56483L0.238187 4.52813C0.213909 4.51466 0.186438 4.50765 0.158521 4.50782C0.130603 4.50798 0.103218 4.5153 0.0791041 4.52905C0.0549901 4.5428 0.0349924 4.56249 0.0211109 4.58617C0.00722935 4.60984 -4.93597e-05 4.63666 2.54848e-06 4.66394V12.6319C-0.000173596 12.6623 0.00878479 12.6921 0.0257688 12.7176C0.0427527 12.7431 0.0670167 12.7632 0.0955576 12.7754C0.124098 12.7875 0.155663 12.7912 0.186345 12.7861C0.217027 12.7809 0.245479 12.767 0.268179 12.7462L5.70693 7.81471Z" fill="#C3CE19"/>
</svg>
