<svg width="10" height="14" viewBox="0 0 10 14" fill="none" xmlns="http://www.w3.org/2000/svg">
<path d="M4.48615 13.2787C0.702344 7.98659 0 7.44346 0 5.49852C0 2.83438 2.23857 0.674683 5 0.674683C7.76143 0.674683 10 2.83438 10 5.49852C10 7.44346 9.29766 7.98659 5.51385 13.2787C5.26555 13.6248 4.73443 13.6248 4.48615 13.2787ZM5 7.50845C6.1506 7.50845 7.08333 6.60858 7.08333 5.49852C7.08333 4.38846 6.1506 3.48859 5 3.48859C3.8494 3.48859 2.91667 4.38846 2.91667 5.49852C2.91667 6.60858 3.8494 7.50845 5 7.50845Z" fill="#525352"/>
</svg>
