<svg width="12" height="14" viewBox="0 0 12 14" fill="none" xmlns="http://www.w3.org/2000/svg">
<path d="M11.34 9.52784C10.52 9.52784 9.72667 9.37391 8.98667 9.09685C8.87074 9.05149 8.74608 9.04475 8.62699 9.07742C8.5079 9.11009 8.39919 9.18084 8.31333 9.28156L7.26667 10.7977C5.38 9.75872 3.61333 7.7962 2.67333 5.54123L3.97333 4.26367C4.15333 4.04818 4.20667 3.74803 4.13333 3.47866C3.88667 2.62439 3.76 1.70855 3.76 0.761919C3.76 0.346327 3.46 0 3.1 0H0.793333C0.433333 0 0 0.184708 0 0.761919C0 7.91164 5.15333 13.8531 11.34 13.8531C11.8133 13.8531 12 13.3682 12 12.9449V10.2898C12 9.87416 11.7 9.52784 11.34 9.52784Z" fill="#525352"/>
</svg>
