<svg width="194" height="243" viewBox="0 0 194 243" fill="none" xmlns="http://www.w3.org/2000/svg">
<path d="M153.736 17.4646C148.325 17.4646 143.165 18.4637 138.459 20.267C128.043 8.43888 112.171 0.878281 94.384 0.878281C68.2813 0.878281 46.304 17.1599 39.6524 39.331C36.7543 38.4147 33.648 37.9107 30.414 37.9107C12.954 37.9107 -3.89237 55.1511 3.00787 73.1756C3.97538 75.6868 8.40534 83.3751 11.0951 83.85C15.207 84.5759 22.5731 74.6496 26.0109 72.2011C31.3277 68.413 37.3501 65.2857 43.9009 63.5204C45.5403 63.097 47.1931 62.7072 48.8796 62.4855C50.566 62.2659 52.2591 62.1158 53.9523 62.1001C57.3363 62.1136 60.7069 62.5303 63.8178 63.6055L63.764 63.9326C57.3946 63.0724 50.8661 63.9483 44.8505 65.9958C38.8148 68.0501 33.2516 71.1908 28.152 74.84C24.0647 77.7343 20.2551 80.9647 16.674 84.4078C21.5675 82.6672 26.6492 81.3164 31.8854 80.5391C38.4833 79.5467 45.3679 79.4481 52.0352 80.781C53.6925 81.1305 55.3453 81.5158 56.9444 82.0669C58.5412 82.6179 60.109 83.234 61.6118 83.9665C64.5882 85.4719 67.3541 87.329 69.5534 89.6499L69.3406 89.9142C64.1559 86.3434 57.9589 84.2354 51.6231 83.3841C45.2671 82.5306 38.7789 82.8464 32.4453 83.812C26.9807 84.6184 21.6011 85.9132 16.3358 87.5351C25.2898 103.967 33.1821 132.406 39.1574 158.726C53.2558 155.144 72.503 152.937 93.7278 152.937C115.21 152.937 134.67 155.198 148.813 158.856H149.575C155.584 132.368 163.539 103.711 172.562 87.291C172.338 87.3582 172.114 87.4254 171.89 87.4881C169.386 88.1669 166.815 88.6104 164.208 88.8479C159.001 89.3004 153.599 88.9061 148.403 87.2753C147.111 86.8564 145.83 86.3792 144.578 85.8147C143.335 85.2322 142.108 84.6027 140.941 83.859C138.605 82.3894 136.462 80.5727 134.681 78.4736C131.096 74.271 129.024 69.029 128.793 63.843L129.156 63.7265C129.947 66.0832 130.964 68.3659 132.249 70.4829C133.517 72.6088 135.046 74.5779 136.818 76.3029C140.352 79.7729 144.82 82.1923 149.546 83.6395C154.267 85.1381 159.254 85.7497 164.222 85.7923C166.708 85.8124 169.196 85.6847 171.673 85.4338C173.265 85.2793 174.858 85.0754 176.439 84.8111C186.869 78.1443 193.704 67.0129 193.704 54.4029C193.702 34.0061 175.807 17.4646 153.736 17.4646Z" fill="#C2CD2F"/>
<path d="M147.707 171.885C132.869 168.264 114.372 166.271 95.6246 166.271C75.5756 166.271 56.68 168.264 42.4159 171.887L39.1416 172.722L33.8024 162.635L39.0274 161.304C53.9387 157.516 73.5622 155.43 94.2808 155.43C115.275 155.43 135.084 157.565 150.061 161.439L154.081 162.478L151.854 172.899L147.707 171.885Z" fill="#C2CD2F"/>
<path fill-rule="evenodd" clip-rule="evenodd" d="M171.086 198.751C172.864 197.967 176.432 198.585 178.094 199.439C180.318 200.584 181.682 202.88 182.457 205.18C183.303 207.692 182.443 212.309 180.761 214.331C178.947 216.513 175.912 217.103 173.211 217.082C168.132 217.042 163.483 214.625 159.102 212.297C148.262 206.542 139.116 198.287 127.427 194.053C120.984 191.719 113.958 191.444 107.434 193.789C103.75 195.113 100.856 197.38 96.8072 201.121C92.758 197.38 89.8644 195.113 86.1803 193.789C79.6563 191.444 72.6306 191.717 66.1873 194.053C54.4988 198.287 45.3522 206.542 34.5125 212.297C30.1318 214.625 25.4824 217.042 20.403 217.082C17.7042 217.103 14.6673 216.513 12.8532 214.331C11.1713 212.309 10.3113 207.692 11.1579 205.18C11.9328 202.882 13.2967 200.584 15.5206 199.439C17.1802 198.585 20.7501 197.967 22.5284 198.751C-3.39512 187.324 -3.55861 222.268 7.65063 233.478C13.2788 239.108 24.8844 242.598 36.5819 242.571C62.4539 242.515 88.4423 233.557 96.8072 219.524C105.174 233.557 131.161 242.515 157.033 242.571C168.73 242.598 180.333 239.108 185.964 233.478C197.171 222.266 197.007 187.324 171.086 198.751Z" fill="#C2CD2F"/>
</svg>
