<svg width="126" height="119" viewBox="0 0 126 119" fill="none" xmlns="http://www.w3.org/2000/svg">
<path d="M78.4126 37.2299C76.9682 37.2299 75.5907 37.4967 74.3346 37.9781C71.5539 34.8205 67.3169 32.8022 62.5687 32.8022C55.6006 32.8022 49.7338 37.1486 47.9581 43.0672C47.1845 42.8226 46.3553 42.688 45.4919 42.688C40.831 42.688 36.3339 47.2903 38.1759 52.102C38.4342 52.7723 39.6168 54.8247 40.3348 54.9515C41.4325 55.1452 43.3988 52.4954 44.3165 51.8418C45.7359 50.8306 47.3435 49.9957 49.0923 49.5245C49.5299 49.4115 49.9711 49.3074 50.4213 49.2482C50.8715 49.1896 51.3235 49.1496 51.7755 49.1454C52.6788 49.149 53.5786 49.2602 54.4091 49.5472L54.3947 49.6345C52.6944 49.4049 50.9516 49.6387 49.3458 50.1853C47.7345 50.7337 46.2494 51.5721 44.8881 52.5463C43.797 53.3189 42.78 54.1812 41.8241 55.1004C43.1304 54.6357 44.4869 54.2751 45.8847 54.0676C47.646 53.8027 49.4839 53.7764 51.2637 54.1322C51.7061 54.2255 52.1473 54.3284 52.5742 54.4755C53.0005 54.6226 53.419 54.787 53.8202 54.9826C54.6147 55.3844 55.3531 55.8802 55.9402 56.4997L55.8834 56.5703C54.4993 55.6171 52.845 55.0543 51.1537 54.8271C49.457 54.5993 47.725 54.6836 46.0342 54.9413C44.5754 55.1566 43.1394 55.5023 41.7338 55.9352C44.124 60.3217 46.2309 67.9134 47.826 74.9395C51.5895 73.9833 56.7276 73.3942 62.3935 73.3942C68.1282 73.3942 73.323 73.9976 77.0985 74.9742H77.3018C78.9059 67.9033 81.0295 60.2535 83.4382 55.87C83.3785 55.888 83.3187 55.9059 83.2589 55.9227C82.5905 56.1039 81.9041 56.2223 81.2082 56.2857C79.8182 56.4065 78.3761 56.3012 76.9891 55.8659C76.6441 55.754 76.3022 55.6266 75.968 55.4759C75.6361 55.3205 75.3085 55.1524 74.997 54.9539C74.3735 54.5616 73.8013 54.0766 73.326 53.5163C72.3688 52.3944 71.8158 50.995 71.7542 49.6106L71.8511 49.5795C72.0621 50.2086 72.3336 50.818 72.6767 51.3831C73.0151 51.9507 73.4235 52.4763 73.8964 52.9368C74.8398 53.8631 76.0325 54.509 77.294 54.8953C78.5543 55.2953 79.8857 55.4586 81.2118 55.47C81.8754 55.4753 82.5397 55.4413 83.2009 55.3743C83.626 55.333 84.0511 55.2786 84.4731 55.208C87.2574 53.4283 89.0821 50.4568 89.0821 47.0906C89.0815 41.6457 84.3046 37.2299 78.4126 37.2299Z" fill="#C2CD2F"/>
<path d="M76.8032 78.4522C72.8423 77.4858 67.9046 76.9536 62.8999 76.9536C57.5478 76.9536 52.5036 77.4858 48.6959 78.4528L47.8218 78.6759L46.3965 75.983L47.7913 75.6278C51.7719 74.6166 57.0103 74.0598 62.5411 74.0598C68.1455 74.0598 73.4336 74.6297 77.4315 75.6637L78.5047 75.9412L77.9104 78.7231L76.8032 78.4522Z" fill="#C2CD2F"/>
<path fill-rule="evenodd" clip-rule="evenodd" d="M83.0442 85.6242C83.5189 85.4149 84.4713 85.5799 84.9149 85.8078C85.5086 86.1133 85.8727 86.7263 86.0795 87.3405C86.3055 88.0108 86.0759 89.2433 85.6269 89.7834C85.1427 90.3658 84.3326 90.5231 83.6116 90.5177C82.2556 90.5069 81.0144 89.8617 79.845 89.2404C76.9514 87.7041 74.5097 85.5004 71.3895 84.3701C69.6694 83.747 67.7939 83.6735 66.0524 84.2996C65.0689 84.653 64.2964 85.2582 63.2155 86.2569C62.1346 85.2582 61.3621 84.653 60.3787 84.2996C58.6371 83.6735 56.7616 83.7464 55.0415 84.3701C51.9213 85.5004 49.4796 87.7041 46.586 89.2404C45.4166 89.8617 44.1754 90.5069 42.8195 90.5177C42.099 90.5231 41.2883 90.3658 40.8041 89.7834C40.3551 89.2433 40.1255 88.0108 40.3515 87.3405C40.5583 86.7269 40.9224 86.1133 41.5161 85.8078C41.9591 85.5799 42.9121 85.4149 43.3868 85.6242C36.4666 82.5737 36.4229 91.9021 39.4152 94.8946C40.9177 96.3974 44.0158 97.3291 47.1384 97.3219C54.0449 97.307 60.9825 94.9155 63.2155 91.1695C65.4491 94.9155 72.3861 97.307 79.2926 97.3219C82.4152 97.3291 85.5128 96.3974 87.0158 94.8946C90.0075 91.9015 89.9638 82.5737 83.0442 85.6242Z" fill="#C2CD2F"/>
<path d="M0.350945 33.8805L17.8671 38.7011L16.9894 40.2063L14.5388 39.5216L11.9058 44.0366L13.6946 45.8563L12.8301 47.3382L0 34.4827L0.350945 33.8805ZM12.9563 39.094L4.74583 36.8173L10.7418 42.8914L12.9563 39.094Z" fill="#525352"/>
<path d="M13.6157 21.8287L21.5631 28.8841C21.9517 29.2292 22.2554 29.6304 22.476 30.0885C22.6847 30.5603 22.7953 31.0411 22.8084 31.5303C22.8216 32.0207 22.7433 32.5123 22.5735 33.0062C22.4037 33.5008 22.1346 33.9553 21.767 34.3691C21.3993 34.7835 20.9921 35.0909 20.5455 35.2918C20.075 35.5191 19.5961 35.656 19.1083 35.7003C18.6216 35.7696 18.1314 35.729 17.6381 35.5783C17.1574 35.4383 16.7294 35.2015 16.3539 34.8684L8.35034 27.7628L9.39959 26.58L17.4205 33.6646C17.9084 34.0743 18.4632 34.2441 19.0843 34.1741C19.7187 34.1161 20.2424 33.853 20.6579 33.3848C20.8947 33.1174 21.0591 32.8447 21.1488 32.5661C21.263 32.2856 21.3168 31.9986 21.3084 31.7043C21.3012 31.4352 21.2319 31.147 21.1015 30.8396C20.9963 30.5795 20.8193 30.3379 20.5682 30.1154L12.5665 23.0116L13.6157 21.8287Z" fill="#525352"/>
<path d="M32.807 24.6992L31.3607 25.5699L22.3049 10.5233L23.7512 9.65258C24.4722 9.25789 25.2291 9.00732 26.0206 8.90207C26.8361 8.8022 27.6151 8.8321 28.3571 8.99058C28.7403 9.0731 29.1038 9.19151 29.447 9.3464C29.7908 9.50128 30.1291 9.68368 30.4639 9.89238C31.1019 10.3289 31.6244 10.8851 32.0303 11.5596C32.4363 12.2342 32.6826 12.9554 32.7699 13.7245C32.8524 14.5545 32.7938 15.3229 32.5935 16.0298C32.3867 16.7606 32.0483 17.4626 31.5784 18.1366C31.3583 18.4649 31.0995 18.7621 30.8017 19.0294C30.5034 19.2967 30.183 19.5437 29.8398 19.7698L32.807 24.6992ZM29.0369 18.435C29.5486 18.1079 29.9737 17.7048 30.3121 17.2276C30.6505 16.7504 30.8914 16.2337 31.0367 15.677C31.1969 15.1112 31.2465 14.5533 31.1868 14.0031C31.1264 13.453 30.941 12.9195 30.6302 12.4028C30.3193 11.8862 29.9342 11.4729 29.4769 11.162C29.0189 10.851 28.5024 10.6345 27.9278 10.5107C27.3533 10.3875 26.7877 10.3666 26.2317 10.4467C25.9262 10.494 25.638 10.5604 25.366 10.6453C25.094 10.7308 24.8237 10.845 24.5553 10.9867L29.0369 18.435Z" fill="#525352"/>
<path d="M35.1362 7.27722L41.4461 4.86902L41.9925 6.30066L37.2102 8.1258L38.052 10.3325L41.7073 8.93731L42.2448 10.3456L38.5895 11.7408L41.2219 18.6425L46.0042 16.8173L46.5416 18.2257L40.2318 20.6339L35.1362 7.27722Z" fill="#525352"/>
<path d="M50.322 17.3526L47.6604 4.86966L45.1446 5.40668L44.8247 3.90746L51.4293 2.49854L51.7485 3.99716L49.2584 4.52819L51.9201 17.0111L50.322 17.3526Z" fill="#525352"/>
<path d="M57.0528 1.90222L58.3424 16.1403L56.7144 16.288L55.4248 2.04933L57.0528 1.90222Z" fill="#525352"/>
<path d="M63.2119 15.9951L63.5922 3.23708L61.0208 3.16053L61.0662 1.62842L67.8166 1.82935L67.7712 3.36146L65.2267 3.28551L64.8465 16.0435L63.2119 15.9951Z" fill="#525352"/>
<path d="M77.5493 18.1557L78.1173 0L79.7608 0.489773L79.4075 13.2305L86.0276 2.35617L87.6968 2.85312L78.2171 18.3548L77.5493 18.1557Z" fill="#525352"/>
<path d="M90.7262 7.75623L96.758 10.7941L96.0687 12.163L91.4968 9.86064L90.435 11.9704L93.9295 13.7304L93.2516 15.0771L89.7571 13.3172L86.4359 19.915L91.0078 22.2174L90.3298 23.5641L84.2986 20.5256L90.7262 7.75623Z" fill="#525352"/>
<path d="M101.334 13.7453L98.481 24.5424L104.652 16.2007L105.966 17.1731L97.4646 28.6657L96.0429 27.6132L98.1755 19.5024L93.5438 25.7636L92.2297 24.7912L100.731 13.2986L101.334 13.7453Z" fill="#525352"/>
<path d="M100.894 31.9256L110.034 23.0188L108.239 21.1757L109.336 20.1064L114.049 24.945L112.951 26.0142L111.175 24.1903L102.035 33.0971L100.894 31.9256Z" fill="#525352"/>
<path d="M117.815 29.6908C118.166 30.2458 118.411 30.8546 118.551 31.516C118.615 31.8395 118.644 32.1553 118.637 32.4644C118.629 32.7736 118.604 33.0852 118.56 33.3991C118.438 34.0103 118.222 34.5898 117.911 35.1376C117.563 35.6895 117.15 36.1356 116.671 36.4735C116.316 36.7253 115.898 36.9322 115.42 37.0961C114.93 37.245 114.458 37.3167 114.002 37.3101C113.769 37.3 113.534 37.2796 113.298 37.2497C113.062 37.2198 112.825 37.1684 112.589 37.0949C112.126 36.9627 111.685 36.7594 111.267 36.4867C111.233 36.5543 111.207 36.6272 111.19 36.705C111.173 36.7827 111.146 36.8676 111.108 36.9597C111.071 37.0518 111.032 37.1499 110.994 37.2545C110.954 37.3586 110.907 37.474 110.853 37.6002L110.26 38.807C109.882 39.5778 109.844 40.3809 110.148 41.217L108.896 42.1014C108.79 41.806 108.707 41.5441 108.648 41.3138C108.588 41.0842 108.541 40.8725 108.506 40.6788C108.411 40.311 108.37 39.9916 108.384 39.7213C108.37 39.4696 108.418 39.2184 108.527 38.9666C108.582 38.8411 108.64 38.7125 108.701 38.5821C108.763 38.4512 108.841 38.3094 108.938 38.1545L109.276 37.5888C109.309 37.5206 109.348 37.4447 109.391 37.3604C109.434 37.2761 109.483 37.1708 109.538 37.0452C109.633 36.8036 109.73 36.5058 109.83 36.153L109.897 35.6818L109.933 35.4276C109.926 35.3887 109.924 35.357 109.928 35.3331C109.931 35.3092 109.929 35.2775 109.922 35.2386L109.953 35.2823L106.159 37.965L105.2 36.6075L116.872 28.3561L117.815 29.6908ZM111.128 34.4181C111.401 34.7465 111.718 35.0209 112.08 35.2428C112.442 35.4647 112.838 35.619 113.268 35.7057C113.698 35.7918 114.122 35.7966 114.539 35.7188C114.928 35.6602 115.335 35.4814 115.759 35.1818C116.115 34.9306 116.41 34.6233 116.647 34.2615C116.863 33.8698 117.004 33.4763 117.074 33.0804C117.146 32.66 117.152 32.2324 117.091 31.7982C117.046 31.5907 116.984 31.379 116.904 31.1644C116.824 30.9497 116.725 30.7434 116.605 30.546L111.128 34.4181Z" fill="#525352"/>
<path d="M123.071 37.9846L126 44.0712L124.619 44.7362L122.4 40.1231L120.272 41.1475L121.968 44.674L120.611 45.3276L118.913 41.8011L112.259 45.0047L114.479 49.6178L113.121 50.2714L110.192 44.1848L123.071 37.9846Z" fill="#525352"/>
<path d="M27.1655 100.103H28.9693V118.865H27.1655V107.001H22.4705V118.865H20.6667V100.103H22.4705V105.31H27.1655V100.103Z" fill="#525352"/>
<path d="M34.8948 103.592H42.1092V105.23H36.6411V107.753H40.8208V109.363H36.6411V117.254H42.1092V118.865H34.8948V103.592Z" fill="#525352"/>
<path d="M55.0766 103.592V114.946C55.0766 115.501 54.9714 116.029 54.7616 116.53C54.5326 117.031 54.2271 117.46 53.8456 117.818C53.4636 118.176 53.0152 118.462 52.4999 118.677C51.9845 118.891 51.4309 118.999 50.8396 118.999C50.2477 118.999 49.7132 118.892 49.2361 118.677C48.7208 118.462 48.2724 118.176 47.8909 117.818C47.4904 117.478 47.1753 117.058 46.9463 116.556C46.7173 116.073 46.6025 115.563 46.6025 115.026V103.592H48.2915L48.3202 115.026C48.3387 115.707 48.5964 116.27 49.0932 116.717C49.5895 117.183 50.1712 117.415 50.8396 117.415C51.221 117.415 51.5552 117.353 51.8416 117.228C52.1465 117.12 52.4144 116.959 52.6433 116.744C52.8532 116.548 53.0343 116.288 53.1874 115.966C53.3207 115.697 53.3877 115.385 53.3877 115.026V103.592H55.0766V103.592Z" fill="#525352"/>
<path d="M62.3191 103.565C63.0197 103.601 63.7019 103.763 64.3643 104.049C64.686 104.192 64.9795 104.362 65.2444 104.559C65.5092 104.756 65.7651 104.971 66.0114 105.203C66.4694 105.686 66.8419 106.232 67.1277 106.84C67.3949 107.484 67.5282 108.12 67.5282 108.746C67.5282 109.212 67.4517 109.703 67.2992 110.222C67.1277 110.741 66.8987 111.198 66.6123 111.591C66.4592 111.789 66.2972 111.981 66.1256 112.168C65.9541 112.356 65.7627 112.531 65.5529 112.692C65.1523 113.014 64.7033 113.273 64.2071 113.47C64.2454 113.542 64.2932 113.609 64.35 113.672C64.4074 113.735 64.4648 113.81 64.5216 113.9C64.579 113.99 64.6405 114.084 64.7075 114.182C64.7745 114.281 64.8456 114.392 64.9221 114.517L65.6091 115.779C66.0479 116.584 66.7253 117.112 67.6418 117.363V119C67.319 118.91 67.0386 118.821 66.8018 118.732C66.5645 118.642 66.351 118.553 66.1615 118.463C65.7819 118.32 65.4782 118.159 65.251 117.98C65.0226 117.837 64.8331 117.64 64.6818 117.389C64.6059 117.264 64.5299 117.134 64.4534 117C64.3775 116.866 64.3016 116.709 64.2256 116.53L63.9411 115.886C63.9028 115.815 63.8603 115.734 63.8125 115.645C63.7653 115.555 63.7031 115.448 63.6278 115.322C63.4759 115.09 63.2762 114.822 63.0299 114.517L62.6598 114.169L62.4602 113.981C62.4219 113.964 62.3932 113.945 62.3741 113.927C62.3549 113.91 62.3262 113.891 62.288 113.873H62.3454V118.839H60.5703V103.567H62.3191V103.565ZM62.3191 112.315C62.7734 112.28 63.2087 112.173 63.6254 111.993C64.0415 111.814 64.4205 111.564 64.7613 111.241C65.1015 110.919 65.3664 110.552 65.5559 110.141C65.7454 109.766 65.8399 109.3 65.8399 108.745C65.8399 108.28 65.7544 107.833 65.5846 107.403C65.3759 106.974 65.12 106.607 64.8181 106.303C64.4959 105.981 64.1264 105.712 63.7103 105.497C63.5016 105.408 63.2792 105.332 63.0425 105.27C62.8057 105.207 62.5648 105.167 62.3185 105.149V112.315H62.3191Z" fill="#525352"/>
<path d="M72.4534 103.592H79.6678V105.23H74.1997V107.753H78.3794V109.363H74.1997V117.254H79.6678V118.865H72.4534V103.592Z" fill="#525352"/>
<path d="M92.6357 103.592V114.946C92.6357 115.501 92.5305 116.029 92.3206 116.53C92.0917 117.031 91.7862 117.46 91.4047 117.818C91.0227 118.176 90.5743 118.462 90.0589 118.677C89.5436 118.891 88.99 118.999 88.3987 118.999C87.8068 118.999 87.2723 118.892 86.7952 118.677C86.2798 118.462 85.8315 118.176 85.45 117.818C85.0494 117.478 84.7344 117.058 84.5054 116.556C84.2764 116.073 84.1616 115.563 84.1616 115.026V103.592H85.8506L85.8793 115.026C85.8978 115.707 86.1555 116.27 86.6523 116.717C87.1485 117.183 87.7303 117.415 88.3987 117.415C88.7801 117.415 89.1143 117.353 89.4007 117.228C89.7056 117.12 89.9734 116.959 90.2024 116.744C90.4123 116.548 90.5934 116.288 90.7465 115.966C90.8798 115.697 90.9468 115.385 90.9468 115.026V103.592H92.6357V103.592Z" fill="#525352"/>
<path d="M96.9294 118.865L100.451 111.161L96.9868 103.592H98.8474L101.395 109.121L103.915 103.592H105.775L102.311 111.161L105.861 118.865H103.972L101.395 113.228L98.7906 118.865H96.9294Z" fill="#525352"/>
<path d="M27.1847 94.1065C21.4088 86.5308 17.9783 77.0691 17.9783 66.806C17.9783 41.9196 38.1477 21.745 63.0277 21.745C87.9078 21.745 108.077 41.9196 108.077 66.806C108.077 77.7717 104.161 87.8226 97.6517 95.6362" stroke="#525352" stroke-miterlimit="10"/>
<path d="M29.5511 92.9278C24.1566 85.8521 20.9526 77.0153 20.9526 67.4297C20.9526 44.1861 39.7907 25.3439 63.0277 25.3439C86.2648 25.3439 105.103 44.1867 105.103 67.4297C105.103 77.6719 101.445 87.0589 95.3655 94.3565" stroke="#525352" stroke-width="0.2" stroke-miterlimit="10" stroke-linecap="round"/>
</svg>
