<svg width="18" height="18" viewBox="0 0 18 18" fill="none" xmlns="http://www.w3.org/2000/svg">
<path d="M16 14.5H2C1.86739 14.5 1.74021 14.4473 1.64645 14.3536C1.55268 14.2598 1.5 14.1326 1.5 14C1.5 13.8674 1.55268 13.7402 1.64645 13.6464C1.74021 13.5527 1.86739 13.5 2 13.5H16C16.1326 13.5 16.2598 13.5527 16.3536 13.6464C16.4473 13.7402 16.5 13.8674 16.5 14C16.5 14.1326 16.4473 14.2598 16.3536 14.3536C16.2598 14.4473 16.1326 14.5 16 14.5Z" fill="#525352"/>
<path d="M16 9.5H2C1.86739 9.5 1.74021 9.44732 1.64645 9.35355C1.55268 9.25979 1.5 9.13261 1.5 9C1.5 8.86739 1.55268 8.74021 1.64645 8.64645C1.74021 8.55268 1.86739 8.5 2 8.5H16C16.1326 8.5 16.2598 8.55268 16.3536 8.64645C16.4473 8.74021 16.5 8.86739 16.5 9C16.5 9.13261 16.4473 9.25979 16.3536 9.35355C16.2598 9.44732 16.1326 9.5 16 9.5Z" fill="#525352"/>
<path d="M16 4.5H2C1.86739 4.5 1.74021 4.44732 1.64645 4.35355C1.55268 4.25979 1.5 4.13261 1.5 4C1.5 3.86739 1.55268 3.74021 1.64645 3.64645C1.74021 3.55268 1.86739 3.5 2 3.5H16C16.1326 3.5 16.2598 3.55268 16.3536 3.64645C16.4473 3.74021 16.5 3.86739 16.5 4C16.5 4.13261 16.4473 4.25979 16.3536 4.35355C16.2598 4.44732 16.1326 4.5 16 4.5Z" fill="#525352"/>
</svg>
