<svg width="126" height="119" viewBox="0 0 126 119" fill="none" xmlns="http://www.w3.org/2000/svg">
    <path d="M78.4126 37.2299C76.9682 37.2299 75.5907 37.4967 74.3346 37.9781C71.5539 34.8205 67.3169 32.8022 62.5687 32.8022C55.6006 32.8022 49.7338 37.1486 47.9581 43.0672C47.1845 42.8226 46.3553 42.688 45.4919 42.688C40.831 42.688 36.3339 47.2903 38.1759 52.102C38.4342 52.7723 39.6168 54.8247 40.3348 54.9515C41.4325 55.1452 43.3988 52.4954 44.3165 51.8418C45.7359 50.8306 47.3435 49.9957 49.0923 49.5245C49.5299 49.4115 49.9711 49.3074 50.4213 49.2482C50.8715 49.1896 51.3235 49.1496 51.7755 49.1454C52.6788 49.149 53.5786 49.2602 54.4091 49.5472L54.3947 49.6345C52.6944 49.4049 50.9516 49.6387 49.3458 50.1853C47.7345 50.7337 46.2494 51.5721 44.8881 52.5463C43.797 53.3189 42.78 54.1812 41.8241 55.1004C43.1304 54.6357 44.4869 54.2751 45.8847 54.0676C47.646 53.8027 49.4839 53.7764 51.2637 54.1322C51.7061 54.2255 52.1473 54.3284 52.5742 54.4755C53.0005 54.6226 53.419 54.787 53.8202 54.9826C54.6147 55.3844 55.3531 55.8802 55.9402 56.4997L55.8834 56.5703C54.4993 55.6171 52.845 55.0543 51.1537 54.8271C49.457 54.5993 47.725 54.6836 46.0342 54.9413C44.5754 55.1566 43.1394 55.5023 41.7338 55.9352C44.124 60.3217 46.2309 67.9134 47.826 74.9395C51.5895 73.9833 56.7276 73.3942 62.3935 73.3942C68.1282 73.3942 73.323 73.9976 77.0985 74.9742H77.3018C78.9059 67.9033 81.0295 60.2535 83.4382 55.87C83.3785 55.888 83.3187 55.9059 83.2589 55.9227C82.5905 56.1039 81.9041 56.2223 81.2082 56.2857C79.8182 56.4065 78.3761 56.3012 76.9891 55.8659C76.6441 55.754 76.3022 55.6266 75.968 55.4759C75.6361 55.3205 75.3085 55.1524 74.997 54.9539C74.3735 54.5616 73.8013 54.0766 73.326 53.5163C72.3688 52.3944 71.8158 50.995 71.7542 49.6106L71.8511 49.5795C72.0621 50.2086 72.3336 50.818 72.6767 51.3831C73.0151 51.9507 73.4235 52.4763 73.8964 52.9368C74.8398 53.8631 76.0325 54.509 77.294 54.8953C78.5543 55.2953 79.8857 55.4586 81.2118 55.47C81.8754 55.4753 82.5397 55.4413 83.2009 55.3743C83.626 55.333 84.0511 55.2786 84.4731 55.208C87.2574 53.4283 89.0821 50.4568 89.0821 47.0906C89.0815 41.6457 84.3046 37.2299 78.4126 37.2299Z" fill="#C2CD2F"/>
    <path d="M76.8032 78.4522C72.8423 77.4858 67.9046 76.9536 62.8999 76.9536C57.5478 76.9536 52.5036 77.4858 48.6959 78.4528L47.8218 78.6759L46.3965 75.983L47.7913 75.6278C51.7719 74.6166 57.0103 74.0598 62.5411 74.0598C68.1455 74.0598 73.4336 74.6297 77.4315 75.6637L78.5047 75.9412L77.9104 78.7231L76.8032 78.4522Z" fill="#C2CD2F"/>
    <path fill-rule="evenodd" clip-rule="evenodd" d="M83.0442 85.6242C83.5189 85.4149 84.4713 85.5799 84.9149 85.8078C85.5086 86.1133 85.8727 86.7263 86.0795 87.3405C86.3055 88.0108 86.0759 89.2433 85.6269 89.7834C85.1427 90.3658 84.3326 90.5231 83.6116 90.5177C82.2556 90.5069 81.0144 89.8617 79.845 89.2404C76.9514 87.7041 74.5097 85.5004 71.3895 84.3701C69.6694 83.747 67.7939 83.6735 66.0524 84.2996C65.0689 84.653 64.2964 85.2582 63.2155 86.2569C62.1346 85.2582 61.3621 84.653 60.3787 84.2996C58.6371 83.6735 56.7616 83.7464 55.0415 84.3701C51.9213 85.5004 49.4796 87.7041 46.586 89.2404C45.4166 89.8617 44.1754 90.5069 42.8195 90.5177C42.099 90.5231 41.2883 90.3658 40.8041 89.7834C40.3551 89.2433 40.1255 88.0108 40.3515 87.3405C40.5583 86.7269 40.9224 86.1133 41.5161 85.8078C41.9591 85.5799 42.9121 85.4149 43.3868 85.6242C36.4666 82.5737 36.4229 91.9021 39.4152 94.8946C40.9177 96.3974 44.0158 97.3291 47.1384 97.3219C54.0449 97.307 60.9825 94.9155 63.2155 91.1695C65.4491 94.9155 72.3861 97.307 79.2926 97.3219C82.4152 97.3291 85.5128 96.3974 87.0158 94.8946C90.0075 91.9015 89.9638 82.5737 83.0442 85.6242Z" fill="#C2CD2F"/>




</svg>
